<?xml version="1.0" encoding="UTF-8"?>
<!DOCTYPE svg PUBLIC "-//W3C//DTD SVG 1.1//EN" "http://www.w3.org/Graphics/SVG/1.1/DTD/svg11.dtd">
<svg xmlns="http://www.w3.org/2000/svg" version="1.1" width="125px" height="125px" style="shape-rendering:geometricPrecision; text-rendering:geometricPrecision; image-rendering:optimizeQuality; fill-rule:evenodd; clip-rule:evenodd" xmlns:xlink="http://www.w3.org/1999/xlink">
<g><path style="opacity:0.984" fill="#030303" d="M 10.5,-0.5 C 44.8333,-0.5 79.1667,-0.5 113.5,-0.5C 116.804,1.97345 119.638,4.97345 122,8.5C 122.667,41.8333 122.667,75.1667 122,108.5C 120.073,113.428 116.573,116.594 111.5,118C 78.5,118.667 45.5,118.667 12.5,118C 7.42678,116.594 3.92678,113.428 2,108.5C 1.33333,75.1667 1.33333,41.8333 2,8.5C 4.3622,4.97345 7.19553,1.97345 10.5,-0.5 Z"/></g>
<g><path style="opacity:1" fill="#f6f6f6" d="M 44.5,9.5 C 47.9705,8.87483 50.8038,9.87483 53,12.5C 56,17.8333 59,23.1667 62,28.5C 65.2072,21.9137 69.0405,15.747 73.5,10C 79.9806,8.64294 82.4806,11.1429 81,17.5C 76.1314,27.409 70.6314,36.909 64.5,46C 62.8333,46.6667 61.1667,46.6667 59.5,46C 53.3686,36.909 47.8686,27.409 43,17.5C 42.2815,14.5929 42.7815,11.9262 44.5,9.5 Z"/></g>
<g><path style="opacity:1" fill="#f3f3f3" d="M 90.5,43.5 C 89.9569,43.56 89.6236,43.8933 89.5,44.5C 96.4684,45.497 103.468,45.8303 110.5,45.5C 115.817,48.723 115.817,52.223 110.5,56C 99.1667,56.6667 87.8333,56.6667 76.5,56C 72.7844,52.4585 72.6177,48.6251 76,44.5C 80.6667,37.1667 85.3333,29.8333 90,22.5C 95.0799,19.0921 98.5799,20.2588 100.5,26C 97.5606,32.0439 94.2273,37.8772 90.5,43.5 Z"/></g>
<g><path style="opacity:1" fill="#f4f4f4" d="M 13.5,45.5 C 20.5316,45.8303 27.5316,45.497 34.5,44.5C 34.3764,43.8933 34.0431,43.56 33.5,43.5C 29.9325,37.7743 26.5992,31.941 23.5,26C 25.4201,20.2588 28.9201,19.0921 34,22.5C 39.0838,31.0029 44.4171,39.3363 50,47.5C 51.123,50.9563 50.2896,53.7897 47.5,56C 36.1667,56.6667 24.8333,56.6667 13.5,56C 8.1829,52.223 8.1829,48.723 13.5,45.5 Z"/></g>
<g><path style="opacity:1" fill="#999999" d="M 33.5,43.5 C 34.0431,43.56 34.3764,43.8933 34.5,44.5C 27.5316,45.497 20.5316,45.8303 13.5,45.5C 20.1667,44.8333 26.8333,44.1667 33.5,43.5 Z"/></g>
<g><path style="opacity:1" fill="#9d9d9d" d="M 90.5,43.5 C 97.1667,44.1667 103.833,44.8333 110.5,45.5C 103.468,45.8303 96.4684,45.497 89.5,44.5C 89.6236,43.8933 89.9569,43.56 90.5,43.5 Z"/></g>
<g><path style="opacity:1" fill="#f5f5f5" d="M 13.5,64.5 C 24.8382,64.3335 36.1716,64.5001 47.5,65C 50.8248,67.635 51.3248,70.8017 49,74.5C 43.5372,83.2606 37.7038,91.7606 31.5,100C 27.0367,101.203 24.37,99.5361 23.5,95C 26.6354,88.4008 30.3021,82.0675 34.5,76C 27.1667,75.6667 19.8333,75.3333 12.5,75C 8.51413,71.1046 8.84746,67.6046 13.5,64.5 Z"/></g>
<g><path style="opacity:1" fill="#f5f5f5" d="M 75.5,64.5 C 87.1714,64.3335 98.8381,64.5001 110.5,65C 115.233,67.9218 115.566,71.2552 111.5,75C 104.167,75.3333 96.8333,75.6667 89.5,76C 93.1249,81.4154 96.6249,86.9154 100,92.5C 100.833,98.3333 98.3333,100.833 92.5,100C 84.9223,90.7623 78.589,80.7623 73.5,70C 73.7579,67.9907 74.4245,66.1573 75.5,64.5 Z"/></g>
<g><path style="opacity:1" fill="#f5f5f5" d="M 58.5,74.5 C 62.6388,73.7042 65.8055,75.0375 68,78.5C 72.3333,86.5 76.6667,94.5 81,102.5C 82.3286,108.834 79.8286,111.668 73.5,111C 69.5414,104.917 65.7081,98.7506 62,92.5C 58.2919,98.7506 54.4586,104.917 50.5,111C 44.1714,111.668 41.6714,108.834 43,102.5C 48.4326,93.3004 53.5992,83.9671 58.5,74.5 Z"/></g>
</svg>
