<?xml version="1.0" standalone="no"?>
<!DOCTYPE svg PUBLIC "-//W3C//DTD SVG 20010904//EN"
 "http://www.w3.org/TR/2001/REC-SVG-20010904/DTD/svg10.dtd">
<svg version="1.0" xmlns="http://www.w3.org/2000/svg"
 width="2481.000000pt" height="527.000000pt" viewBox="0 0 2481.000000 527.000000"
 preserveAspectRatio="xMidYMid meet">

<g transform="translate(0.000000,527.000000) scale(0.100000,-0.100000)"
fill="#000000" stroke="none">
<path d="M1676 4646 c-61 -23 -89 -47 -119 -107 -51 -98 -51 -99 209 -576 125
-230 251 -463 281 -518 64 -118 94 -149 165 -170 83 -24 173 3 221 67 23 31
476 858 546 995 49 99 39 188 -31 260 -83 85 -241 75 -311 -19 -13 -18 -100
-172 -192 -343 -92 -170 -169 -311 -171 -313 -3 -5 -27 38 -194 348 -79 146
-154 280 -168 298 -54 74 -155 107 -236 78z"/>
<path d="M16940 2890 l0 -1460 305 0 305 0 0 136 0 136 73 -67 c193 -180 338
-239 582 -240 156 0 246 16 375 67 280 111 489 366 577 707 34 134 44 420 18
571 -41 247 -146 454 -313 616 -109 106 -224 173 -379 221 -82 25 -101 27
-268 27 -169 0 -185 -1 -261 -27 -126 -42 -269 -143 -360 -255 l-44 -54 0 541
0 541 -305 0 -305 0 0 -1460z m1221 200 c187 -36 349 -200 405 -411 22 -85 22
-262 0 -349 -48 -191 -172 -335 -340 -396 -90 -32 -228 -34 -318 -3 -355 119
-484 627 -244 963 46 64 139 142 202 167 91 37 198 47 295 29z"/>
<path d="M6630 4273 c-207 -21 -376 -70 -553 -160 -319 -163 -559 -435 -690
-784 -61 -161 -94 -396 -83 -592 30 -539 306 -969 771 -1200 342 -170 823
-201 1225 -80 180 54 405 170 579 300 l91 68 0 608 0 607 -610 0 -610 0 0
-265 0 -265 310 0 310 0 0 -204 0 -204 -80 -42 c-114 -58 -208 -89 -330 -105
-143 -20 -224 -19 -338 5 -121 24 -207 59 -297 118 -187 124 -317 325 -360
557 -26 135 -17 349 19 470 71 237 230 425 451 532 124 60 209 76 365 70 243
-10 441 -85 638 -245 24 -20 46 -31 51 -26 13 15 355 428 368 444 10 13 2 23
-45 61 -131 104 -284 191 -427 242 -206 73 -535 113 -755 90z"/>
<path d="M970 4237 c-51 -17 -114 -84 -129 -139 -25 -90 -17 -109 199 -452
110 -174 200 -319 200 -323 0 -3 -174 -4 -387 -2 l-388 4 -47 -28 c-50 -29
-91 -86 -103 -145 -17 -81 37 -182 118 -221 41 -20 66 -21 632 -31 412 -7 600
-7 628 1 58 15 124 81 142 142 19 64 11 113 -30 180 -236 386 -593 939 -627
969 -59 55 -129 70 -208 45z"/>
<path d="M3414 4230 c-53 -27 -80 -56 -146 -165 -31 -49 -162 -259 -293 -465
-130 -206 -246 -392 -256 -412 -54 -105 14 -256 129 -287 26 -8 224 -8 627 -1
582 10 590 10 634 32 159 79 157 299 -3 374 l-51 24 -379 -7 c-371 -6 -378 -6
-368 13 5 10 90 145 187 299 98 154 186 298 196 320 79 172 -109 358 -277 275z"/>
<path d="M9460 3610 c-226 -21 -384 -137 -514 -380 l-46 -85 0 218 0 217 -302
-2 -303 -3 -3 -1072 -2 -1073 305 0 305 0 0 420 c0 546 11 651 87 810 76 158
235 272 427 305 49 8 108 15 132 15 l44 0 -2 318 c-3 309 -4 317 -23 318 -11
1 -58 -2 -105 -6z"/>
<path d="M10539 3595 c-486 -92 -843 -445 -925 -916 -23 -134 -15 -329 20
-464 94 -362 373 -655 736 -773 130 -42 218 -55 385 -55 229 0 362 31 549 126
328 167 542 459 601 817 81 500 -196 996 -664 1191 -148 62 -247 81 -446 85
-128 2 -202 -1 -256 -11z m355 -525 c212 -54 370 -227 413 -452 62 -327 -123
-638 -416 -699 -81 -17 -242 -7 -316 20 -156 56 -289 194 -345 361 -30 88 -38
248 -16 348 68 321 362 504 680 422z"/>
<path d="M15507 3590 c-148 -38 -288 -129 -405 -264 l-47 -54 -3 154 -3 154
-302 -2 -302 -3 -2 -1392 -3 -1393 305 0 305 0 0 455 c0 250 2 455 4 455 2 0
30 -26 63 -58 114 -112 250 -193 378 -227 99 -26 256 -30 376 -10 326 54 548
222 703 532 86 171 120 334 119 573 0 232 -29 372 -118 557 -124 257 -332 434
-603 514 -103 31 -360 36 -465 9z m176 -505 c156 -40 278 -146 347 -299 44
-97 55 -159 54 -296 0 -109 -4 -135 -28 -205 -82 -237 -262 -375 -491 -375
-243 0 -433 159 -500 418 -21 82 -21 266 0 347 54 206 203 368 380 411 70 17
170 17 238 -1z"/>
<path d="M20275 3595 c-266 -54 -453 -153 -629 -333 -152 -155 -250 -342 -291
-554 -23 -117 -21 -327 4 -443 65 -311 267 -581 551 -738 182 -100 351 -141
585 -140 174 1 261 14 400 63 418 144 718 520 753 945 29 338 -74 635 -303
874 -142 148 -321 249 -543 308 -83 22 -123 26 -277 29 -128 2 -200 -1 -250
-11z m343 -520 c205 -48 360 -205 417 -420 21 -80 21 -245 0 -327 -54 -208
-211 -367 -403 -407 -77 -16 -219 -14 -283 5 -189 56 -343 218 -394 414 -22
85 -22 245 0 330 40 155 142 292 265 356 117 60 271 79 398 49z"/>
<path d="M12143 2793 c3 -778 3 -789 25 -873 70 -264 246 -448 482 -505 94
-22 252 -30 339 -16 82 13 195 56 268 103 26 17 92 76 146 130 l97 99 0 -150
0 -151 300 0 300 0 0 1075 0 1075 -299 0 -300 0 -3 -652 c-5 -714 -5 -714 -65
-818 -72 -122 -217 -184 -378 -161 -150 22 -243 105 -288 259 -7 24 -13 271
-17 702 l-5 665 -303 3 -303 2 4 -787z"/>
<path d="M21610 3570 c0 -5 160 -243 355 -527 195 -285 355 -521 355 -524 0
-4 -168 -250 -374 -548 l-375 -541 318 0 318 0 214 330 c118 181 216 330 219
330 3 0 101 -149 219 -330 l213 -330 325 0 325 0 -18 28 c-9 15 -175 257 -369
537 -193 281 -354 515 -358 522 -4 7 138 221 351 530 198 285 356 521 352 526
-3 4 -145 6 -315 5 l-309 -3 -200 -312 c-111 -171 -204 -309 -208 -305 -4 4
-95 145 -201 312 l-194 305 -322 3 c-210 1 -321 -1 -321 -8z"/>
<path d="M1030 2589 c-278 -5 -524 -11 -547 -14 -54 -8 -117 -54 -145 -107
-54 -104 -14 -225 92 -281 l55 -29 378 7 c207 4 377 5 377 2 0 -4 -64 -107
-141 -229 -242 -382 -261 -414 -266 -460 -8 -69 13 -127 63 -175 87 -84 216
-83 296 3 30 33 624 973 639 1011 15 41 10 121 -10 162 -26 50 -81 97 -128
110 -21 6 -65 10 -98 9 -33 -1 -287 -5 -565 -9z"/>
<path d="M2836 2586 c-110 -41 -166 -174 -117 -281 10 -22 70 -121 133 -220
63 -99 175 -276 249 -393 242 -385 245 -389 288 -418 83 -54 192 -40 262 34
48 50 62 90 57 160 -4 56 -12 72 -193 358 -103 164 -195 309 -203 322 l-15 23
394 -3 395 -3 42 28 c113 74 135 216 48 315 -61 70 -62 70 -536 76 -234 4
-501 8 -595 11 -131 4 -179 2 -209 -9z"/>
<path d="M2192 2210 c-42 -18 -87 -58 -107 -97 -11 -21 -97 -180 -191 -353
-381 -704 -359 -659 -359 -720 1 -112 83 -200 194 -208 51 -4 67 0 112 24 64
35 61 31 264 407 88 163 163 296 166 297 3 0 32 -48 64 -107 234 -431 290
-531 314 -557 132 -144 378 -32 359 163 -4 38 -59 147 -289 570 -326 600 -314
583 -437 588 -37 2 -77 -2 -90 -7z"/>
</g>
</svg>
